<?xml version="1.0" encoding="utf-8"?>
<!-- Generator: Adobe Illustrator 24.1.2, SVG Export Plug-In . SVG Version: 6.00 Build 0)  -->
<svg version="1.1" id="Layer_1" xmlns="http://www.w3.org/2000/svg" xmlns:xlink="http://www.w3.org/1999/xlink" x="0px" y="0px"
	 viewBox="0 0 1200 1248" style="enable-background:new 0 0 1200 1248;" xml:space="preserve">
<style type="text/css">
	.st0{fill:#FEFEFE;}
</style>
<path class="st0" d="M812.5,898.8c1.7,0.1,3.2,0.9,4.2,2.3c24.7,27.5,49.5,54.9,74.3,82.4c4.2,4.7,8.7,9.2,13,13.8
	c2.5,2.7,2.2,4.9-1,6.9c-5.6,3.6-11.2,7.2-16.7,10.8c-3.4,2.3-6.1,1.6-8.8-1.3c-23.6-25.4-47.2-50.8-70.8-76.2
	c-1.8-1.9-3.6-3.8-5.4-5.8c-7.3-7.8-7.2-7.9-1.2-16.9c3-4.5,6.1-9.1,9-13.7C809.9,899.8,810.7,898.8,812.5,898.8z"/>
<g>
	<path class="st0" d="M367.8,768.5c0,128.9,102.9,230.2,230.8,230.4c127.5,0.3,232.5-100.6,231.2-230.1
		c1.7-129.2-103.7-230.1-230.4-230.3C472.2,538.2,367.8,639.3,367.8,768.5z M385.2,739.6c2.4-7.3,3-15,5-22.4
		c3.7-13.4,8.1-26.6,14.2-39.2c5.3-10.9,11.3-21.4,18.1-31.4c1.7-2.5,3.2-5,5-7.4c1-1.3,2.1-3,4-2.3s1.5,2.7,1.5,4.3
		c0,9,0,17.9,0,26.9h-0.2c0,8.2-0.3,16.3,0.1,24.4c0.3,4.8-1.4,8.2-4.7,11.4c-10.8,10.6-21.5,21.3-32.1,32.1c-2,2-3.8,4.2-5.7,6.3
		c-1,1.1-2.3,2.1-4,1.3S384.7,741.1,385.2,739.6z M431.7,900.2c-2.2,0.9-3.4-1-4.4-2.5c-10.3-15.3-19.9-30.9-27.1-48
		c-7-16.6-10.5-33.9-14.7-51.2c-0.4-1.7-1.1-3.8,1-4.9c1.8-0.9,3.2,0.6,4.3,1.8c12.7,14.1,26.7,27,39.9,40.6c1.9,2,2.3,4.3,2.2,6.9
		c0,7.9,0,15.9,0,23.9c0.2,9.7-0.7,19.3,0.3,29C433.4,897.4,433.6,899.4,431.7,900.2z M460.9,694.6c10.5-10.4,10-10.9,24.8-9.2
		l1,0.1c12.9,1.4,12.4,1.6,15.5,14.1c2.7,11.1,4.5,22.4,9.8,32.8c1.6,3.1,0.5,5.6-2.9,6.7c-12.6,4.1-24.7,9.7-36,16.7
		c-3,1.8-6,1.8-8.8-0.6c-0.4-0.5-0.9-0.9-1.5-1.3c-11.1-6.6-17-15.6-12.6-29C446,712,452.3,703.3,460.9,694.6z M524,630.7
		c2.3-1.9,4.4-4,6.3-6.4c5.4-6.7,12-9.6,20.8-9c5.6,0.4,10,2.1,13.8,5.7c6.1,5.7,12,11.5,18,17.3c3.2,3.1,3.1,6.1,0.6,9.7
		c-7.7,11.1-13.3,23.3-18.3,35.8c-1.8,4.5-3.9,5.7-8.3,3.4c-10.6-5.4-21.8-8.9-33.3-11.8c-8.6-2.1-9.6-3.2-9.8-12.1
		c0.1-2.4,0.1-4.9,0.1-8.8C510.9,644.9,516,637.3,524,630.7z M522.3,751.9c0.5-0.2,1-0.2,1.5-0.3c12.4-3.1,12.3-3.5,6.9-15.1
		c-3.9-8.4-6.6-17.4-9.2-26.3c-1.3-4.3-2.2-8.7-3.6-13c-1.6-4.8,0.4-7,5.2-5.4c15.3,5,30.7,10.1,44.4,18.7c3.3,2.1,5.7,1.8,6.9-2.1
		c3-9.5,6.6-18.8,10.8-27.8c3.2-6.6,6.5-13.1,10.3-19.3c2.6-4.3,4.7-4.3,7.3,0.1c5.6,9.2,10.4,18.9,14.4,28.9
		c2.3,6,4.5,12.2,6.7,18.2c1.3,3.5,3.5,4.1,6.6,2.1c13.8-8.7,29.1-13.6,44.4-18.9c1.7-0.6,3.6-1.4,5.1,0.3s0.7,3.4,0.2,5.2
		c-3.4,12.3-6.7,24.7-11.5,36.6c-1.2,3.1-2.8,6-4.2,9s-0.5,4.9,2.6,6.2c6.2,2.4,12.7,4,18.9,6.3c7.8,2.9,15.1,7,23,9.6
		c1.7,0.4,2.9,1.9,2.9,3.7c0,2.1-1.7,2.6-3.3,3.3c-13.5,6.1-27.1,11.8-41.4,15.8c-3.8,1.1-4.2,3.3-2.7,6.4c4.1,8.2,6.8,16.9,10,25.5
		c2.5,6.9,3.3,14.3,5.9,21.2c1.4,3.8-0.9,5.5-4.9,4.4c-15.4-4.3-30.3-10.1-44.2-18.2c-4.1-2.4-6.1-2.2-7.8,2.5
		c-3.2,9.1-6.2,18.2-10.6,26.8c-3.4,6.7-6.7,13.3-10.5,19.8c-2.4,4.1-4.5,4-7-0.1c-5.6-9.2-10.4-18.9-14.4-28.9
		c-2.4-6.2-4.6-12.4-6.8-18.7c-1.3-3.7-3.2-3.9-6.5-2c-14.1,8.3-29.3,14.2-45,18.8c-3.2,1-5.2,0.6-5.5-3.8c1.4-4.6,2.8-9.7,4.3-14.8
		c2.8-9.7,5.5-19.5,10.4-28.5c0.8-1.5,1.4-3,2-4.6c1.3-3,0.2-4.7-2.8-5.6c-11.2-3.2-22.1-7.2-32.8-12c-3.2-1.4-6.4-2.8-9.6-4.2
		c-1.3-0.6-2.4-1.2-2.5-2.8c-0.2-1.6,0.8-3,2.3-3.5C499.7,760.8,510.6,755.4,522.3,751.9z M684.4,656.4h-0.2c0,3.2-0.2,6.3,0.1,9.5
		c0.4,4.9-2.1,7.6-6.5,8.6c-10.2,2.3-20.1,5.8-29.9,9.4c-2.5,0.9-4.8,2.3-7.2,3.4c-4.2,2-6.2,0.8-7.9-3.4
		c-5.1-12.6-10.7-25-18.6-36.2c-2.3-3.2-2.6-5.9,0.2-8.9c7.1-7.3,14.2-14.5,22.3-20.7c5.6-4.3,20.5-3.7,25.6,1.2
		c6.4,6.1,12.5,12.4,18.8,18.6c2.5,2.3,3.8,5.6,3.4,9C684.3,650.1,684.3,653.2,684.4,656.4z M748.6,730.6
		c2.1,9.6-2.7,15.8-10.1,20.7c-1.7,1.1-3.2,2.4-4.7,3.7c-2.9,2.6-6,2.6-9.1,0.7c-11.2-6.9-23.1-12.4-35.6-16.5c-3.6-1.2-4.7-3.7-3-7
		c6-12.2,8.2-25.5,10.7-38.7c0.8-4.1,2.3-6.4,6.4-6.9c6.8-0.8,13.5-1.6,20.3-2.3c2.2-0.3,4.4,0.6,5.8,2.3c5.8,6.4,11.7,12.7,17.6,19
		c1.7,1.8,1.9,4.1,1.9,6.5c0,4.3,0,8.6,0,13h-0.2C748.6,726.9,748.3,728.8,748.6,730.6z M684.2,881c3.4,11.2-2.3,18.8-10.3,25.5
		c-2.6,2-5,4.4-7,7.1c-6.1,8.8-14.9,8.9-24.1,8c-2.7-0.3-5.2-1.3-7.2-3.1c-7.4-6.2-14.3-12.9-21.1-19.8c-2.7-2.7-2.9-5.5-0.8-8.5
		c8.1-11.8,14.2-24.7,19.4-38c1.2-3.2,3.3-4.2,6.2-2.8c12.1,6,25,9.8,38,13.3c5,1.4,7.3,4,6.8,9.2C684,875,684.2,878,684.2,881z
		 M513.8,880.7L513.8,880.7c0.1-1.7,0.1-3.6,0.1-5.4c0.2-10.5,0.1-10.8,10.4-13.6c11.7-3.2,23.3-6.9,34.2-12.3
		c2.6-1.3,5-0.9,6.1,2.1c5.1,13.7,11.8,26.8,19.8,39c1.9,2.8,1.6,5.6-0.9,8.1c-6.8,7-14,13.7-21.5,20c-6.2,5-21.3,4.2-26.9-1.3
		c-4.8-4.8-9.4-9.9-14.5-14.5c-5.1-4.5-8-9.6-6.8-16.6C514,884.4,514,882.5,513.8,880.7z M466.2,780.8c2-1.6,4.5-0.8,6.6,0.5
		c10.8,6.6,22.3,12,34.2,16.1c6.3,2.2,6.4,3.4,3.7,9.4c-2,4.6-3.5,9.3-4.5,14.2c-1.6,7.6-4.5,15-5,22.9c-0.3,4.4-2.7,6.7-6.9,7.1
		c-6.5,0.6-13,1.1-19.4,1.7c-2.7,0.2-5.3-0.9-7-3c-4.7-5.2-9.4-10.3-14.3-15.3c-3.2-3-4.8-7.3-4.2-11.7c0.2-3.6,0.2-7.1,0-10.5
		c0.2-1.3,0.2-2.7,0-4C445.8,793.4,457.3,787.8,466.2,780.8z M449.2,914.4c0.1-17.3,0.6-34.6-0.2-51.9c-0.1-1.8-0.6-3.9,1.5-4.8
		c1.8-0.8,3.5,0.7,4.2,2c6,10.3,15.4,10.7,25.7,9.3c3.9-0.6,8-0.7,11.9-1.1c3.7-0.4,5.8,0.8,5.4,5c-0.9,8-0.2,16-0.2,23.9
		c-0.2,4,1.5,7.9,4.5,10.6c3,2.8,6.1,5.7,9.2,8.4c1.4,1.3,3,2.4,2.2,4.5c-0.7,1.9-2.6,1.7-4.3,1.7h-27.4v-0.3c-8.5,0-16.9,0-25.4,0
		C450,921.7,449.2,920.5,449.2,914.4z M572.6,979.3c-1,2.2-3.1,1.3-4.9,1c-23-3.7-45.1-10.3-65.8-21c-9.6-5-18.7-10.8-28-16.2
		c-1.5-0.9-2.5-2.4-1.7-4.2s2.7-1.6,4.4-1c16.5,0,32.9,0.1,49.4-0.1c4.2-0.2,8.2,1.5,11.1,4.5c11.2,11,21.8,22.4,33.5,32.9
		C571.8,976.3,573.5,977.4,572.6,979.3z M604.2,976.8c-4.7,4.6-5.9,4.6-10.5-0.1c-11-11.1-21.5-22.7-33.3-33
		c-1.3-1.1-2.6-2.3-2.1-4.2s2.2-1.8,3.7-2c2.5-0.5,4.7-1.7,6.5-3.4c8.6-7.8,17.4-15.5,25.9-23.5c3.3-3.2,5.8-3.4,9.3-0.1
		c7.8,7.4,16,14.5,24,21.7c2.8,2.6,5.6,5.2,9.8,5.5c1.3-0.1,2.5,1,2.5,2.3c-0.1,0-0.1,0.1-0.1,0.2c-0.2,1.3-0.9,2.5-2,3.3
		C625.9,953.8,615.4,965.6,604.2,976.8z M723.7,943.5c-28.8,18.6-59.6,32.1-93.8,37.1c-1.6,0.2-3.5,0.9-4.4-1.1s0.7-3,1.9-4.1
		c11.7-10.4,22.3-21.9,33.5-32.8c3.1-3.1,6.5-4.8,11.1-4.6c7.3,0.1,14.7-0.1,24.7-0.1c6.6-0.3,15.9,0.7,25.2-0.5
		c1.7-0.2,3.5-0.2,4,2C726.3,941.3,725.2,942.5,723.7,943.5z M748.7,914.3c0,6-0.8,7.2-6.7,7.2c-8.8,0.1-17.7,0-26.5,0l0.1,0.5h-27
		c-1.7,0-3.5,0-4.1-2c-0.5-1.7,0.5-2.8,1.7-3.9c18-16.3,13.8-10.1,14.4-33.1c0.1-3.2-0.1-6.3-0.3-9.5c-0.2-4.9,0.9-6,5.7-5.7
		c6.5,0.5,13,0.6,19.4,1.4c6.4,0.8,11-1.4,14.8-6.3c0.3-0.4,0.6-0.8,0.9-1.2c1.8-1.9,3.4-5.2,6.2-4.1c3.1,1.2,1.3,4.7,1.3,7.2
		C748.6,881.3,748.6,897.8,748.7,914.3z M737.1,843c-7,8-14,10.7-24.3,9.1c-13.8-2.1-13.8-1.6-17.1-14.8
		c-2.7-11.1-4.5-22.5-9.8-32.9c-1.9-3.8,1-5.5,4-6.5c10.6-3.6,21.2-7.5,30.3-13.8c7.9-5.4,13.3-3.5,18.9,2.6
		c0.2,0.2,0.5,0.5,0.8,0.6c6.9,4.3,10.3,10,8.7,18.4c-0.4,2.1,0,4.6,0,6.9C752.3,825.6,745,833.9,737.1,843z M812.6,798.7
		c-3.5,9.9-4.1,20.5-7.3,30.5c-4.7,15-10.9,29.6-18.5,43.4c-4.3,7.7-9.3,14.9-14.1,22.3c-0.7,1.1-1.4,2.3-2.3,3.3
		c-1,1.3-2.1,3-4,2.2s-1.7-2.7-1.6-4.3c0.9-9.1,0.1-18.1,0.2-27.1c0-8.7,0.1-17.3,0-26c-0.2-2.8,0.9-5.6,2.9-7.6
		c12.9-13.4,26.7-26,39.2-39.8c1.2-1.3,2.6-3.1,4.6-1.9C813.8,794.9,813.2,797,812.6,798.7z M766.4,636.7c2-0.8,3.1,0.9,4,2.2
		c6.7,9.3,12.8,19,18.4,29c7.9,14.7,13.7,30.2,18.3,46.2c2.4,8.8,2.2,18,5.9,25.7c0,2.1-0.2,3.5-1.7,3.9c-1.9,0.6-3.1-0.8-4.2-2
		c-6.3-6.5-12.4-13-18.7-19.4c-6.7-6.8-13.4-13.5-20.1-20.2c-2.1-1.9-3.3-4.7-3.2-7.5c0.2-18,0.6-36-0.2-54
		C764.8,639.1,764.6,637.4,766.4,636.7z M765.4,745.1c-0.2-4.8-0.2-9.7-0.3-14.5c0-1.9-1-4.3,1.3-5.4c2.3-1,3.6,1.2,4.9,2.5
		c11.2,11.2,22.2,22.5,33.4,33.6c7.3,7.3,7.2,7.2-0.2,14.6c-11.2,11.2-22.3,22.4-33.4,33.7c-1.3,1.3-2.5,3.1-4.6,2.3
		c-2.4-0.9-1.8-3.3-1.7-5.2c0.2-2.3,0.4-4.6,0.5-6.9c2.5-9.9-2.5-16.2-10-21.4c-2.7-1.9-5.2-4.1-7.9-6.1c-3.4-2.4-3.6-5,0-7.4
		c5.2-3.4,9.6-7.7,14.3-11.6C764.2,751.4,765.6,748.3,765.4,745.1z M748.8,622.4c0,17.6-0.7,35.3,0.3,52.9c0.1,1.7,0.2,3.5-1.7,4.3
		s-3.4-0.5-4.2-1.9c-6.2-10.7-15.9-11.1-26.5-9.6c-3.5,0.5-7,0.8-10.4,1.2c-4.6,0.5-6-0.8-6-5.5c0.1-7.3-0.1-14.7,0.4-22
		c0.4-4.7-1.5-9.3-5.2-12.3c-3.1-2.8-6.1-5.7-9.1-8.5c-1.2-1.2-2.7-2.3-1.7-4.2c0.8-1.6,2.5-1.3,4-1.3h27.5v0.2c8.7,0,17.3,0,26,0
		C748,615.7,748.8,616.7,748.8,622.4z M625.6,557.6c1-1.9,2.8-1.3,4.5-1.1c31.2,5.4,60.5,15.7,86.9,33.4c1.9,1.3,4.1,2.2,6,3.6
		c1.5,1,3.3,2.3,2.7,4.4c-0.7,2.3-2.9,2-4.7,1.8c-9.2-1-18.4-0.2-25.3-0.5c-9.6,0-16.9-0.2-24.2,0.1c-3.7,0.2-7.3-1.2-9.9-3.8
		c-11.4-11.2-22.3-22.9-34.2-33.7C626.2,560.7,624.6,559.5,625.6,557.6z M594.1,559.9c1.6-1.3,2.8-3,5.1-3c1.8,0.2,2.9,1.5,4.1,2.7
		c11.3,11.3,22.2,23,34,33.8c1.2,1.1,2.6,2.4,2.2,4.2c-0.5,2.1-2.4,1.9-4.1,2.2c-2.3,0.3-3.9,1.7-5.5,3.1
		c-8.5,7.7-17.1,15.3-25.6,23c-4.5,4.1-6.1,4.1-10.5,0.1c-8.6-7.8-17.3-15.6-26-23.4c-1.5-1.6-3.5-2.6-5.7-2.9
		c-1.5-0.2-3.2-0.2-3.7-2c-0.4-1.8,1-3.1,2.1-4.3c5.7-5.6,11.5-11.2,17.1-16.8C583.3,571,588.6,565.5,594.1,559.9z M475.2,593.6
		c12.6-7.7,25.1-15.5,38.7-21.4c17.2-7.4,35.2-11.9,53.5-15.4c1.8-0.3,3.9-1.2,5,0.8s-0.8,3.4-2,4.5c-11.7,10.7-22.5,22.1-33.7,33.3
		c-2.5,2.7-6.1,4.2-9.8,4c-7.5-0.3-15-0.1-25.1-0.1c-6.6,0.3-15.7-0.5-24.8,0.4c-1.8,0.2-4,0.5-4.6-1.8
		C471.9,595.8,473.7,594.5,475.2,593.6z M449.2,623.1c0-6.7,0.7-7.5,7.4-7.5c8.7,0,17.3,0,26,0v-0.2c9,0,18,0,27,0
		c1.5,0,3.2-0.1,3.9,1.5c0.7,1.7-0.5,2.8-1.6,3.8c-3.8,3.7-7.6,7.4-11.4,11.2c-1.8,1.8-2.8,4.2-2.8,6.7c-0.1,8.2-0.7,16.3,0,24.4
		c0.5,5.5-1,6.7-6.7,6.1s-11.6-0.7-17.4-1.5c-7.1-1-12.2,1.6-16.4,7.2c-1.7,2.2-3.3,6.1-6.8,4.5c-3.2-1.4-1.1-5.1-1.1-7.8
		C449.3,655.4,449.3,639.2,449.2,623.1z M441.9,758.2c3,2.1,5.8,4.4,8.7,6.6c3.5,2.6,3.6,5.2,0,7.4c-5.7,3.6-10.3,8.4-15.3,12.7
		c-2.2,1.9-2.6,4.5-2.6,7.3c0.1,5.2,0.3,10.3,0.5,15.5c0,1.7,0.2,3.5-1.8,4.2c-1.7,0.6-2.9-0.5-3.9-1.6c-12-13.1-25-25.4-37.6-37.9
		c-2.9-2.9-2.5-5.3,0.3-8c12.3-11.7,24.4-23.6,36-36c1.4-1.5,2.8-3.9,5.3-3.1c2.7,1,1.5,3.7,1.5,5.7c0,2.3,0,4.7,0,7.9
		C430.4,747.1,434.8,753.2,441.9,758.2z"/>
	<path class="st0" d="M1187.2,290.1c-30-31.8-60-63.4-89.8-95.3c-19-20.3-38.6-40-56.9-61c-2.4-2.8-5.6-2.8-7,0.1
		c-4.8,9.7-10.6,18.7-16,28.1c-8.6,15-17.1,30.1-25.8,45c-12.8,22-25.6,43.9-38.4,65.9c-11.1,19.2-22.2,38.5-33.3,57.8
		c-10.5,18.1-21,36.1-31.4,54.3c-2.8,5-6.2,9-12.1,10.2c-3.6,0.9-7,2.5-9.9,4.7c-13,9.2-20.5,21.7-18.9,37.8c0.6,6.1-0.9,9.9-4.9,14
		c-34.4,34.9-68.8,69.8-103.1,104.7c-1,0.7-1.7,1.7-2.2,2.7c-1.5,5.2-4.3,4.3-7.8,2c-17.1-11.4-35.7-19.7-55.2-26.1
		c-23.6-7.8-48.3-11.8-73.1-11.8c-21.7,0-43.1,2.1-64.2,7.9c-14.9,4-29.4,9.3-43.4,15.9c-6.7,3.1-13.1,6.6-19.3,10.5
		c-1.7,1.1-4.3,2.6-5-0.2c-1.1-4.4-4.6-6.4-7.3-9.2c-34.2-34.8-68.5-69.5-102.9-104.2c-2.3-2-3.4-5.1-2.8-8.1
		c3.7-21.7-11.9-42.1-31.8-47.4c-2.8-0.6-5.2-2.4-6.6-4.9c-4.3-7.2-8.6-14.6-12.8-21.9c-10.1-17.5-20.2-35.1-30.4-52.6
		c-9.9-16.9-19.8-33.8-29.6-50.8c-10.3-17.7-20.5-35.3-30.7-53l-29.9-51.8c-4.5-7.8-8.9-15.6-13.5-23.3c-2.9-4.7-4.6-4.7-8.4-0.7
		c-1.3,1.4-2.6,3-4,4.4C108.2,186.3,57.5,238.9,6.9,291.4c-2.8,2.9-2.6,5.1,1,7.1c3.3,1.8,6.8,3.3,10.2,5.1
		c17.3,8.9,34.6,17.8,51.9,26.7c21.4,11.1,42.8,22.3,64.2,33.4c19.5,10.1,39,20.1,58.5,30.1c22.5,11.5,45,23.1,67.4,34.8
		c5.3,2.7,10.9,4.9,12.3,12c3.7,19.5,25.2,34.7,45.7,31.6c7.1-1.1,11.9,0.9,16.9,5.7c32.9,31.4,65.7,62.9,98.6,94.3
		c1.8,1.7,3.3,3.9,5.9,4.4c4.4,0.9,3.1,3.3,1.2,5.2c-2.5,2.5-5.5,4.4-8,6.8c-12.8,12-24.4,25.1-34.5,39.4
		c-14.1,19.8-25.1,41.6-32.6,64.7c-4.7,14.3-7.4,29.2-9.8,44.2c-4.2,25.6-1.9,50.8,1.6,76.1c1,7,2.7,14,4.9,20.8
		c3.2,9.9,6,19.8,10.3,29.5s8.7,19.4,14.3,28.4c4.7,7.6,5,7.4-0.9,13.6c-0.5,0.5-0.9,1.1-1.3,1.6C357.3,937,330,967,302.6,997
		c-2.9,3.3-2.7,5.1,1,7.5c5.5,3.5,10.9,7,16.3,10.6c3.3,2.2,6,1.9,8.8-1.1c7.6-8.4,15.4-16.7,23.1-25c18.6-20,37.3-39.9,55.8-60
		c3-3.2,4.6-1.6,6.7,0.8c33.8,39,76.1,64.4,125.8,77.6c19.3,5,39.1,6.3,61.1,7.3c11.3-1,24.9-1.3,38.5-3.7
		c17.2-2.9,34-7.7,50.2-14.2c19.1-7.7,37.2-17.8,53.9-30c34.7-25.4,60.4-58.1,78.8-96.8c8.5-17.9,14.6-36.8,18.1-56.2
		c4.2-23.6,6.6-47.5,2.6-71.6c-1.7-10.3-3-20.6-5.4-30.9c-2.5-10.6-5.8-21.1-9.7-31.3c-4.1-10.7-9.1-21-14.7-31
		C801,626.6,785,606.3,766,589c-4.6-4.1-4.6-4.6,0.5-7.5c0.9-0.5,1.7-1.1,2.4-1.8c25.5-24.4,51-48.8,76.5-73.3
		c8.4-8.1,16.8-16.2,25.3-24.2c3.6-3.4,7.2-6.3,13.2-5.1c22.1,4.4,43.3-10.4,48.8-32c0.9-3.5,2.2-6.2,5.3-7.9
		c17.6-9.8,35.1-19.7,52.7-29.5c19.8-11.2,39.8-22.2,59.6-33.4c22.4-12.6,44.8-25.4,67.3-38c22.8-12.7,45.6-25.4,68.4-38.1
		C1190.5,295.7,1190.7,293.8,1187.2,290.1z M837.8,768.8c0.6,132.5-107.4,240.2-240.9,239.2c-129.3-1-237.5-106.2-236.9-240.3
		c0.6-132.3,107-238.5,239-238.4C731.1,529.3,838.3,635.3,837.8,768.8z"/>
</g>
<polygon class="st0" points="789,915.8 808.5,892.2 829.8,915.7 806.7,937.5 789,918.8 "/>
</svg>
