<?xml version="1.0" standalone="no"?>
<!DOCTYPE svg PUBLIC "-//W3C//DTD SVG 20010904//EN"
 "http://www.w3.org/TR/2001/REC-SVG-20010904/DTD/svg10.dtd">
<svg version="1.0" xmlns="http://www.w3.org/2000/svg"
 width="164.000000pt" height="164.000000pt" viewBox="0 0 164.000000 164.000000"
 preserveAspectRatio="xMidYMid meet">

<g transform="translate(0.000000,164.000000) scale(0.100000,-0.100000)"
fill="#000000" stroke="none">
<path d="M184 1357 c-38 -40 -86 -90 -107 -113 l-38 -41 163 -83 c98 -49 176
-96 195 -116 18 -20 42 -34 55 -34 16 0 47 -23 93 -70 l69 -70 -31 -32 c-36
-39 -66 -95 -58 -108 3 -6 1 -10 -5 -10 -7 0 -9 -8 -5 -20 3 -11 2 -20 -3 -20
-5 0 -9 -27 -9 -60 -1 -33 3 -60 7 -60 5 0 6 -8 4 -17 -3 -10 4 -35 15 -56
l19 -38 -110 -120 c-86 -93 -108 -123 -97 -130 8 -5 17 -9 20 -9 7 0 171 176
195 208 11 16 14 15 37 -7 14 -12 30 -20 36 -17 5 4 13 1 17 -5 4 -8 3 -9 -4
-5 -7 4 -12 5 -12 2 0 -9 66 -45 95 -50 23 -5 21 -3 -10 9 -22 9 -44 20 -49
25 -5 5 15 0 45 -11 69 -27 174 -23 236 9 51 27 60 27 42 5 -13 -17 -12 -17 6
-4 11 8 34 28 51 43 l31 29 108 -116 c97 -105 130 -129 130 -98 0 6 -49 66
-109 132 l-108 121 -40 -45 c-22 -25 -45 -45 -51 -45 -6 0 8 19 30 43 56 57
84 123 85 200 2 126 -54 222 -164 276 -52 27 -72 31 -137 31 -86 0 -148 -23
-217 -80 -30 -25 -29 -23 8 12 l47 45 -80 79 c-52 52 -79 86 -79 101 0 13 -11
29 -25 39 -13 8 -63 84 -111 167 -48 84 -93 160 -99 169 -10 15 -20 9 -81 -55z
m606 -522 l-23 -24 24 -20 c30 -25 32 -25 60 -2 l24 19 -24 26 c-32 34 -7 35
28 2 19 -18 39 -26 75 -28 66 -4 91 -30 87 -90 -2 -37 2 -47 28 -72 17 -17 31
-36 31 -45 0 -10 -9 -6 -30 14 -27 26 -30 27 -30 9 0 -11 -5 -25 -11 -31 -10
-10 -6 -21 19 -62 1 -3 13 6 27 19 35 32 31 12 -5 -30 -20 -25 -29 -46 -30
-72 0 -20 -4 -40 -10 -43 -6 -4 -10 7 -10 25 0 25 -3 31 -16 26 -9 -3 -22 -6
-30 -6 -8 0 -14 -9 -14 -19 0 -11 -4 -23 -10 -26 -20 -13 -9 -25 23 -25 24 0
28 -3 17 -10 -8 -5 -31 -10 -51 -10 -21 0 -42 -7 -49 -16 -8 -8 -23 -20 -34
-26 -21 -11 -21 -11 -2 11 20 22 20 22 -7 48 l-26 27 -26 -24 -25 -24 22 -23
c30 -32 2 -30 -33 3 -21 20 -35 25 -65 22 l-39 -3 40 -23 c27 -15 32 -20 15
-16 -34 9 -81 38 -109 68 -13 14 -28 23 -34 19 -6 -3 -7 -1 -4 4 4 6 -2 31
-13 54 -21 47 -26 157 -9 194 8 17 8 15 4 -7 -7 -35 0 -35 30 0 18 20 24 39
25 73 0 58 24 82 84 84 31 1 54 10 78 28 42 34 59 35 28 2z m-222 -130 c-6
-14 -13 -23 -15 -21 -5 5 15 46 22 46 3 0 -1 -11 -7 -25z"/>
<path d="M668 782 c-34 -3 -36 -5 -40 -43 -3 -38 4 -50 17 -29 4 6 15 8 26 5
15 -5 19 -1 19 17 0 13 5 29 12 36 15 15 10 18 -34 14z"/>
<path d="M940 778 c0 -4 5 -10 10 -13 6 -3 10 -18 10 -32 0 -19 4 -24 16 -19
9 4 23 1 30 -5 12 -9 14 -4 14 29 0 39 -1 40 -40 44 -22 2 -40 0 -40 -4z"/>
<path d="M727 762 c-26 -28 -20 -49 14 -61 18 -6 33 -11 34 -11 2 0 8 14 15
30 10 24 10 33 0 45 -17 20 -43 19 -63 -3z"/>
<path d="M856 767 c-17 -13 -17 -15 -2 -45 19 -36 16 -35 50 -22 18 6 26 17
26 33 0 43 -38 60 -74 34z"/>
<path d="M805 697 c-14 -27 -23 -36 -34 -31 -53 21 -59 17 -42 -29 9 -22 6
-27 -20 -37 -37 -16 -37 -27 2 -35 23 -5 29 -11 23 -23 -3 -10 -9 -27 -12 -40
-5 -23 -4 -23 31 -8 l36 15 13 -35 c15 -43 24 -43 43 1 l14 36 32 -16 c38 -20
44 -15 30 26 -6 18 -10 33 -9 34 2 0 17 7 33 14 l30 14 -33 14 c-19 7 -32 19
-29 26 21 55 20 60 -6 53 -14 -3 -31 -8 -39 -11 -8 -3 -19 9 -29 32 l-16 38
-18 -38z"/>
<path d="M642 678 c-15 -15 -16 -64 -1 -73 8 -6 69 12 69 20 0 1 -5 16 -11 34
-11 32 -35 41 -57 19z"/>
<path d="M950 678 c0 -7 -3 -22 -6 -34 -4 -16 1 -24 25 -33 16 -7 35 -10 40
-6 15 9 14 58 -1 73 -16 16 -58 15 -58 0z"/>
<path d="M572 617 c-28 -30 -28 -38 3 -67 19 -18 25 -20 25 -8 0 9 7 21 15 28
13 11 14 15 2 29 -8 9 -16 22 -18 29 -3 9 -11 6 -27 -11z"/>
<path d="M637 563 c-12 -11 -8 -68 5 -81 10 -10 48 -18 48 -9 0 1 4 17 9 35 9
30 7 33 -19 47 -33 17 -34 17 -43 8z"/>
<path d="M968 556 c-30 -11 -33 -21 -18 -60 11 -31 30 -33 53 -8 37 40 13 86
-35 68z"/>
<path d="M546 525 c4 -16 17 -50 30 -75 l23 -45 1 46 c0 38 -5 50 -31 75 l-31
29 8 -30z"/>
<path d="M738 467 c-33 -13 -37 -46 -10 -70 24 -22 35 -21 57 3 15 17 16 24 5
50 -14 33 -13 33 -52 17z"/>
<path d="M855 448 c-14 -29 -14 -33 1 -50 21 -23 37 -23 57 0 27 29 21 59 -13
70 -27 10 -30 8 -45 -20z"/>
<path d="M630 418 l0 -38 42 0 c33 0 39 3 30 12 -7 7 -12 22 -12 34 0 17 -7
23 -30 26 -29 4 -30 3 -30 -34z"/>
<path d="M1300 1254 c-54 -94 -107 -174 -122 -186 -16 -11 -28 -29 -28 -41 0
-15 -27 -49 -75 -97 l-74 -74 -37 17 c-58 28 -49 15 12 -17 56 -30 96 -72 132
-141 12 -22 21 -36 22 -32 0 14 -38 84 -64 114 l-26 31 75 71 c49 46 80 69 90
65 10 -4 27 7 48 29 17 19 103 74 189 122 l157 88 -20 26 c-18 23 -179 191
-183 191 0 0 -44 -75 -96 -166z"/>
<path d="M808 903 c12 -2 30 -2 40 0 9 3 -1 5 -23 4 -22 0 -30 -2 -17 -4z"/>
<path d="M720 890 c-11 -8 -7 -9 15 -4 37 8 45 14 19 14 -10 0 -26 -5 -34 -10z"/>
<path d="M888 893 c7 -3 16 -2 19 1 4 3 -2 6 -13 5 -11 0 -14 -3 -6 -6z"/>
<path d="M675 870 c-3 -6 1 -7 9 -4 18 7 21 14 7 14 -6 0 -13 -4 -16 -10z"/>
<path d="M1131 654 c0 -11 3 -14 6 -6 3 7 2 16 -1 19 -3 4 -6 -2 -5 -13z"/>
<path d="M1142 580 c0 -19 2 -27 5 -17 2 9 2 25 0 35 -3 9 -5 1 -5 -18z"/>
<path d="M1106 443 c-6 -14 -5 -15 5 -6 7 7 10 15 7 18 -3 3 -9 -2 -12 -12z"/>
<path d="M788 263 c17 -2 47 -2 65 0 17 2 3 4 -33 4 -36 0 -50 -2 -32 -4z"/>
</g>
</svg>
